<?xml version="1.0" encoding="UTF-8" standalone="no"?>
<svg
   xmlns:dc="http://purl.org/dc/elements/1.1/"
   xmlns:cc="http://creativecommons.org/ns#"
   xmlns:rdf="http://www.w3.org/1999/02/22-rdf-syntax-ns#"
   xmlns:svg="http://www.w3.org/2000/svg"
   xmlns="http://www.w3.org/2000/svg"
   xmlns:sodipodi="http://sodipodi.sourceforge.net/DTD/sodipodi-0.dtd"
   xmlns:inkscape="http://www.inkscape.org/namespaces/inkscape"
   version="1.1"
   id="svg2"
   xml:space="preserve"
   width="151.18134"
   height="113.39133"
   viewBox="0 0 151.18134 113.39133"
   sodipodi:docname="osfsticker.ai"><metadata
     id="metadata8"><rdf:RDF><cc:Work
         rdf:about=""><dc:format>image/svg+xml</dc:format><dc:type
           rdf:resource="http://purl.org/dc/dcmitype/StillImage" /></cc:Work></rdf:RDF></metadata><defs
     id="defs6"><clipPath
       clipPathUnits="userSpaceOnUse"
       id="clipPath18"><path
         d="M 0,85.043 H 113.386 V 0 H 0 Z"
         id="path16" /></clipPath></defs><sodipodi:namedview
     pagecolor="#ffffff"
     bordercolor="#666666"
     borderopacity="1"
     objecttolerance="10"
     gridtolerance="10"
     guidetolerance="10"
     inkscape:pageopacity="0"
     inkscape:pageshadow="2"
     inkscape:window-width="640"
     inkscape:window-height="480"
     id="namedview4" /><g
     id="g10"
     inkscape:groupmode="layer"
     inkscape:label="osfsticker"
     transform="matrix(1.3333333,0,0,-1.3333333,0,113.39133)"><g
       id="g12"><g
         id="g14"
         clip-path="url(#clipPath18)"><g
           id="g20"
           transform="translate(67.6221,78.8394)"><path
             d="m 0,0 c 1.586,-0.426 3.13,-0.924 4.583,-1.579 4.162,-1.875 7.396,-4.545 9.703,-8.01 0.83,-1.245 1.504,-2.557 2.035,-3.931 H 45.559 V 0 Z"
             style="fill:#000000;fill-opacity:1;fill-rule:nonzero;stroke:none"
             id="path22" /></g><g
           id="g24"
           transform="translate(78.1484,10.417)"><path
             d="M 0,0 C -2.518,-1.907 -5.535,-3.303 -9.028,-4.213 H 3.904 V 4.01 C 2.848,2.533 1.564,1.187 0,0"
             style="fill:#000000;fill-opacity:1;fill-rule:nonzero;stroke:none"
             id="path26" /></g><g
           id="g28"
           transform="translate(65.0342,31.4102)"><path
             d="m 0,0 c -0.157,0.124 -0.339,0.25 -0.518,0.375 v -12.128 c 0.24,0.142 0.497,0.265 0.717,0.428 1.688,1.256 2.534,3.021 2.534,5.298 C 2.733,-3.449 1.822,-1.44 0,0"
             style="fill:#000000;fill-opacity:1;fill-rule:nonzero;stroke:none"
             id="path30" /></g><g
           id="g32"
           transform="translate(82.0527,57.3736)"><path
             d="m 0,0 h -14.236 c 0,2.979 -0.912,5.29 -2.735,6.931 -0.173,0.155 -0.381,0.268 -0.565,0.408 V -8.983 c 3.528,-1.286 6.54,-2.643 9.017,-4.075 4.373,-2.523 7.489,-5.595 9.438,-9.178 H 28.28 v 13.47 H 0 Z"
             style="fill:#000000;fill-opacity:1;fill-rule:nonzero;stroke:none"
             id="path34" /></g><g
           id="g36"
           transform="translate(62.9824,32.7315)"><path
             d="m 0,0 c -1.853,1.024 -4.36,2.073 -7.554,3.147 -3.798,1.278 -6.988,2.518 -9.636,3.727 -0.091,-3.824 -0.539,-7.15 -1.362,-9.954 h 1.019 c 0,-3.918 1.01,-6.805 3.034,-8.663 1.884,-1.731 4.877,-2.644 8.95,-2.763 0.833,1.247 1.595,2.575 2.278,3.991 C -1.718,-7.296 -0.636,-3.786 0,0"
             style="fill:#000000;fill-opacity:1;fill-rule:nonzero;stroke:none"
             id="path38" /></g><g
           id="g40"
           transform="translate(50.5146,54.2847)"><path
             d="M 0,0 C 2.005,-1.524 5.533,-3.097 10.582,-4.72 11.4,-4.983 12.155,-5.255 12.926,-5.525 12.453,-0.312 11.176,4.423 9.071,8.665 8.405,10.008 7.673,11.273 6.874,12.462 3.878,12.417 1.485,11.738 -0.276,10.396 -2.099,9.005 -3.01,7.24 -3.01,5.098 -3.01,3.222 -2.006,1.523 0,0"
             style="fill:#000000;fill-opacity:1;fill-rule:nonzero;stroke:none"
             id="path42" /></g><g
           id="g44"
           transform="translate(42.2642,8.1329)"><path
             d="m 0,0 c -4.797,2.125 -8.409,5.038 -10.833,8.737 -0.443,0.677 -0.832,1.379 -1.194,2.094 -3.83,0.418 -6.779,2.301 -8.848,5.648 -2.365,3.824 -3.547,9.294 -3.547,16.413 l 0.049,5.337 c 0.488,12.847 4.933,19.409 13.31,19.725 0.575,1.472 1.345,2.865 2.337,4.168 2.357,3.096 5.692,5.507 10.005,7.232 0.123,0.049 0.257,0.081 0.381,0.129 -3.699,1.47 -7.725,2.221 -12.093,2.221 -6.229,0 -11.783,-1.48 -16.662,-4.44 -4.88,-2.961 -8.628,-7.159 -11.242,-12.597 -2.615,-5.438 -3.923,-11.716 -3.923,-18.832 v -4.091 c 0.134,-6.851 1.541,-12.921 4.223,-18.208 2.68,-5.289 6.42,-9.354 11.217,-12.197 4.796,-2.845 10.292,-4.266 16.487,-4.266 4.367,0 8.39,0.747 12.086,2.209 C 1.161,-0.493 0.576,-0.256 0,0"
             style="fill:#000000;fill-opacity:1;fill-rule:nonzero;stroke:none"
             id="path46" /></g></g></g></g></svg>
